<svg width="48" height="48" viewBox="0 0 48 48" fill="none" xmlns="http://www.w3.org/2000/svg">
<path d="M35.9683 29.0129C36.0133 29.7615 36.7949 30.2664 37.4301 29.8678C41.3764 27.392 44 23.0024 44 18C44 10.268 37.732 4 30 4C24.9976 4 20.608 6.62361 18.1321 10.5699C17.7336 11.2051 18.2385 11.9866 18.9871 12.0316C27.9387 12.5698 35.43 20.069 35.9683 29.0129Z" fill="#3B71FE"/>
<path d="M32 30C32 37.732 25.732 44 18 44C10.268 44 4 37.732 4 30C4 22.268 10.268 16 18 16C25.732 16 32 22.268 32 30Z" fill="#3B71FE"/>
</svg>
